<svg width="550" height="617" xmlns="http://www.w3.org/2000/svg" class="svg-inline--fa fa-facebook-square fa-w-14">

 <g>
  <title>background</title>
  <rect fill="none" id="canvas_background" height="617" width="450" y="-1" x="-1"/>
 </g>
 <g>
  <title>Layer 1</title>
  <path stroke="null" id="svg_1" d="m459.785715,63l-375.571423,0a51.214285,50.25 0 0 0 -51.214285,50.25l0,368.5a51.214285,50.25 0 0 0 51.214285,50.25l146.440846,0l0,-159.449531l-67.218749,0l0,-75.050469l67.218749,0l0,-57.20125c0,-65.063281 39.477678,-101.0025 99.942543,-101.0025c28.95741,0 59.237856,5.066875 59.237856,5.066875l0,63.859375l-33.363973,0c-32.873169,0 -43.126696,20.01625 -43.126696,40.545469l0,48.732031l73.385802,0l-11.736607,75.050469l-61.649195,0l0,159.449531l146.440846,0a51.214285,50.25 0 0 0 51.214285,-50.25l0,-368.5a51.214285,50.25 0 0 0 -51.214285,-50.25z" fill="#0e385f"/>
 </g>
</svg>